<?xml version="1.0" encoding="UTF-8" standalone="no"?>
<!DOCTYPE svg PUBLIC "-//W3C//DTD SVG 1.1//EN" "http://www.w3.org/Graphics/SVG/1.1/DTD/svg11.dtd">
<svg width="100%" height="100%" viewBox="0 0 1237 806" version="1.1" xmlns="http://www.w3.org/2000/svg" xmlns:xlink="http://www.w3.org/1999/xlink" xml:space="preserve" xmlns:serif="http://www.serif.com/" style="fill-rule:evenodd;clip-rule:evenodd;stroke-linecap:round;stroke-linejoin:round;stroke-miterlimit:1.5;">
    <g id="body" transform="matrix(1,0,0,1,-121.82,-324.045)">
        <path d="M247.031,773.147C238.766,764.217 233.645,754.755 230.379,744.979C228.417,733.217 229.608,721.966 236.144,711.579C240.791,702.823 248.178,698.39 261.27,702.964C267.207,705.251 273.545,706.653 280.766,706.111C285.049,705.944 286.236,703.907 284.326,700C277.082,692.869 272.206,685.374 271.274,677.174C272.062,661.376 267.498,649.908 260.731,640.222C254.823,635.86 246.452,635.338 236.947,636.555C219.927,639.462 213.208,636.411 210.882,630.828C204.126,625.521 199.124,619.345 195.96,612.259C256.571,556.45 315.12,527.348 370.363,541.061L357.707,564.037C350.759,571.585 349.631,578.961 355.528,586.127C365.391,601.681 378.265,610.57 395.259,610.345L438.716,604.835C533.94,597.427 635.553,603.131 744.198,623.269C816.643,635.631 890.545,649.583 952.436,650.436L1137.4,657.405C1212.07,660.311 1285.43,657.518 1357.56,649.401C1332.8,684.441 1317.84,723.559 1313.62,766.261C1313.82,771.861 1312.66,778.742 1307.6,779.567C1301.94,781.036 1296.42,780.339 1290.96,778.727C1243.14,772.036 1228.52,782.158 1215.33,794.933L1195.22,813.652C1191.44,818.89 1188.18,820.357 1185.31,818.916C1175.64,821.624 1164.37,818.13 1154.61,811.031C1125.8,798.964 1094.83,793.715 1063.27,790.359C984.906,786.312 896.966,792.668 789.223,820.536L700,847.45C599.571,878.476 500.407,920.021 389.003,859.841C363.346,850.539 344.991,835.99 333.821,817.674C316.254,792.059 298.922,778.215 280.95,776.925C268.76,778.207 257.296,777.401 247.031,773.147Z" style="fill:rgb(255,38,0);stroke:black;stroke-width:1px;"/>
        <path d="M122.32,684.095C127.738,691.467 138.804,696.598 154.228,700L170.507,702.098C179.044,704.077 185.818,709.819 187.763,719.34C191.245,700.194 196.78,688.319 204.767,683.278C211.565,678.052 211.203,673.46 204.704,667.718L193.138,654.836C189.373,651.172 187.986,645.898 187.85,639.778C187.221,633.699 186.836,628.037 186.89,623.123C170.463,634.009 154.209,646.626 138.779,661.08C131.389,667.048 124.777,673.445 122.32,684.095Z" style="fill:rgb(255,251,0);stroke:black;stroke-width:1px;"/>
        <path d="M196.587,612.759L185.529,624.03C183.239,639.708 185.417,654.085 200.367,664.746C206.852,671.044 209.799,677.396 203.53,683.886C195.519,691.146 189.725,702.144 186.778,717.943C201.012,746.591 220.252,766.77 247.586,773.253C234.961,757.912 229.336,744.561 230.879,733.246C229.212,724.964 232.558,717.983 237.861,711.541C241.649,703.655 248.317,700.538 258.262,702.845C267.087,704.784 275.159,706.045 281.372,705.632C286.528,705.378 287.015,703.333 284.15,700C273.636,687.665 271.523,678.855 271.459,670.905C270.514,652.842 266.099,641.644 257.682,638.361C254.713,635.016 245.554,634.97 231.445,637.563C220.601,638.351 213.145,636.696 209.257,630.227C203.874,624.948 200.413,619.604 196.587,612.759Z" style="stroke:black;stroke-width:1px;"/>
        <path d="M233.648,657.468C234.897,663.867 239.135,667.49 246.864,668.268C251.802,667.813 255.541,665.023 258.082,659.897C259.194,653.986 258.023,648.764 254.099,644.374C250.477,640.242 245.41,640.662 239.969,642.261C235.306,645.995 232.514,650.705 233.648,657.468Z" style="fill:rgb(255,251,0);stroke:black;stroke-width:1px;"/>
    </g>
</svg>
