<?xml version="1.0" standalone="no"?>
<!DOCTYPE svg PUBLIC "-//W3C//DTD SVG 20010904//EN"
 "http://www.w3.org/TR/2001/REC-SVG-20010904/DTD/svg10.dtd">
<svg version="1.0" xmlns="http://www.w3.org/2000/svg"
 width="1329.000000pt" height="1329.000000pt" viewBox="0 0 1329.000000 1329.000000"
 preserveAspectRatio="xMidYMid meet">
<metadata>
Created by potrace 1.14, written by Peter Selinger 2001-2017
</metadata>
<g transform="translate(0.000000,1329.000000) scale(0.100000,-0.100000)"
fill="#000000" stroke="none">
<path d="M2779 12636 c-2 -2 -35 -7 -74 -10 -38 -4 -81 -9 -95 -11 -146 -21
-168 -25 -220 -36 -25 -6 -52 -12 -60 -14 -344 -74 -759 -259 -1055 -470 -181
-130 -401 -327 -535 -480 -353 -405 -607 -934 -695 -1450 -42 -251 -40 -47
-40 -3495 0 -1779 4 -3269 8 -3310 57 -546 255 -1061 572 -1489 46 -63 88
-117 92 -120 4 -3 25 -27 45 -53 55 -67 210 -223 308 -309 427 -374 964 -622
1525 -705 22 -3 51 -8 65 -10 100 -17 627 -19 4030 -19 3390 0 3922 2 4005 19
11 2 47 7 80 12 33 4 62 8 65 9 3 1 25 5 50 9 72 12 278 65 365 93 424 138
832 384 1147 692 54 52 101 97 106 100 7 5 165 192 195 231 186 238 354 551
460 855 39 111 98 337 113 429 3 21 8 48 10 60 2 11 6 41 9 66 3 25 8 56 10
70 16 92 19 543 19 3335 0 2804 -2 3230 -19 3355 -3 19 -7 55 -10 80 -3 25 -7
56 -10 70 -3 14 -7 36 -10 50 -28 150 -64 288 -113 430 -331 966 -1159 1712
-2152 1941 -69 15 -143 31 -165 34 -22 3 -49 8 -61 10 -11 2 -45 7 -75 11 -30
3 -81 10 -114 14 -57 8 -7767 14 -7776 6z"/>
</g>
</svg>
