<?xml version="1.0" encoding="UTF-8" standalone="no"?>
<!DOCTYPE svg PUBLIC "-//W3C//DTD SVG 1.1//EN" "http://www.w3.org/Graphics/SVG/1.1/DTD/svg11.dtd">
<svg width="100%" height="100%" viewBox="0 0 1239 948" version="1.1" xmlns="http://www.w3.org/2000/svg" xmlns:xlink="http://www.w3.org/1999/xlink" xml:space="preserve" xmlns:serif="http://www.serif.com/" style="fill-rule:evenodd;clip-rule:evenodd;stroke-linecap:round;stroke-linejoin:round;stroke-miterlimit:1.5;">
    <g transform="matrix(1,0,0,1,-120.931,-190.766)">
        <g id="Layer1" transform="matrix(-1,0,-0,1,1480.05,0)">
            <path d="M523.021,589.54L427.226,518.693C389.515,487.941 355.207,455.126 323.264,420.876C307.431,407.087 299.131,393.389 302.969,372.915L268.768,328.724C257.826,315.885 262.203,309.563 266.61,303.253C262.181,295.413 254.077,292.331 248.649,278.792C242.258,262.164 243.21,251.468 247.292,244.927C239.164,235.971 233.107,223.819 229.805,207.41C228.737,200.556 229.385,193.864 232.888,192.212C236.107,189.22 243.069,193.659 251.421,200.858C283.114,233.331 316.879,260.725 353.084,282.133C421.635,325.704 490.565,366.505 555.527,409.166C662.534,481.427 697.57,532.724 707.667,587.473C715.911,594.98 725.071,602.21 735.417,609.084C740.169,610.96 745.002,611.721 749.924,611.257C777.154,557.732 817.914,510.661 867.396,467.749L969.142,391.536C973.632,387.148 977.948,386.113 982.196,386.392L1048.34,348.732C1060.05,342.613 1072.2,343.289 1081.91,347.747L1134.8,322.924C1147.44,317.727 1158.81,317.568 1167.94,326.193C1181.34,314.292 1197.02,309.733 1214.05,309.505C1217.81,309.444 1221.44,310.229 1224.9,312.058C1227.82,313.597 1230.62,315.877 1233.3,319.014C1246.19,308.479 1262.28,301.488 1287.15,304.285C1295.14,307.393 1295.86,312.486 1296.55,317.668C1250.51,346.134 1210.02,379.125 1174.14,415.871C1130.55,459.824 1089.38,505.425 1049.87,552.159L957.63,638.021C1092.32,646.676 1226.51,650.415 1355.12,639.176L1358.62,650.893C1337.04,685.114 1314.6,718.309 1313,776.244C1310.4,779.66 1306.94,780.681 1303.35,781.36C1278.54,775.501 1257.36,774.909 1239.67,779.371C1223.57,787.309 1207.58,802.934 1191.58,817.937C1182.51,819.656 1172.54,820.567 1164.1,815.459C1135.33,801.531 1109.89,797.226 1086.72,795.967L1105.15,815.98C1111.72,829.64 1118.32,840.782 1124.97,847.439C1139.06,865.101 1153.35,882.513 1165.37,902.819C1165.5,912.144 1163.07,921.901 1160.58,928.858L1197.7,979.948C1200.12,989.45 1200.13,997.28 1194.29,1006.84C1201.56,1021.87 1209.81,1036.36 1213.36,1053.41C1213.85,1062.22 1211.52,1070.76 1206.13,1073.82C1220.15,1090.74 1223.69,1109.14 1223.24,1128.45C1220.57,1132.62 1217.79,1136.64 1213.06,1138C1178.11,1093.4 1139.87,1062.37 1102.14,1029.23C1048.61,992.757 993.286,962.985 943.195,929.309C895.466,896.554 852.006,858.646 814.489,814.91C776.887,823.827 737.733,838.089 694.106,850.011C677.253,892.718 641.563,944.13 551.417,1017.2L468.661,1076.93C462.766,1083.05 454.589,1084.77 444.773,1083.33C428.121,1094.14 409.847,1104.29 389.258,1113.52C374.345,1120.18 361.714,1116.67 350.084,1108.68C334.137,1115.05 318.379,1121.5 300.741,1126.98C290.341,1131.25 280.355,1128.9 270.69,1121.45C259.645,1126.99 252.235,1127.61 244.562,1128.58C226.117,1131.75 217.485,1124.96 210.033,1116.98C199.046,1120.63 187.149,1122.2 174.321,1121.64C160.619,1122.05 150.18,1118.98 150.463,1111.22C151.851,1103.41 158.158,1096.94 165.939,1093.49C201.194,1077.18 235.031,1053.19 269.871,1017.55C318.03,969.075 361.621,919.884 405.526,869.974C383.613,858.467 361.855,846.954 348.279,835.112C338.7,825.246 329.322,815.212 321.974,803.47C310.358,789.104 297.181,778.38 279.344,778.526C268.469,778.714 257.881,777.545 247.828,773.846C226.46,771.959 207.169,751.996 189.463,721.505L180.433,706.437L143.682,700C127.566,693.256 117.045,686.515 123.222,679.784C126.527,661.087 157.053,637.294 191.468,612.774C212.938,591.481 230.232,575.984 243.299,566.35C259.872,554.803 276.509,543.884 293.583,537.189C308.13,529.976 326.793,523.934 375.468,526.424L370.664,539.695L360.21,562.579C355.806,568.959 353.745,572.339 358.67,576.009C363.991,582.583 369.622,587.289 375.306,591.211C380,597.565 391.076,598.865 404.868,597.377L523.021,589.54Z" style="fill:white;stroke:white;stroke-width:1px;"/>
        </g>
    </g>
</svg>
