<?xml version="1.0" encoding="UTF-8" standalone="no"?>
<!DOCTYPE svg PUBLIC "-//W3C//DTD SVG 1.1//EN" "http://www.w3.org/Graphics/SVG/1.1/DTD/svg11.dtd">
<svg width="100%" height="100%" viewBox="0 0 1237 806" version="1.1" xmlns="http://www.w3.org/2000/svg" xmlns:xlink="http://www.w3.org/1999/xlink" xml:space="preserve" xmlns:serif="http://www.serif.com/" style="fill-rule:evenodd;clip-rule:evenodd;stroke-linecap:round;stroke-linejoin:round;stroke-miterlimit:1.5;">
    <g transform="matrix(1,0,0,1,-121.82,-324.045)">
        <g id="wing-left">
            <path d="M162.339,1118.19C177.724,1123.3 193.123,1122.9 208.542,1114.85C212.238,1120.01 217.157,1124.03 223.416,1126.8C229.318,1130.09 238.003,1130.77 251.977,1126.49C258.175,1125.29 263.943,1123.33 268.807,1119.76L276.733,1125.27C282.21,1129.51 289.693,1131.14 301.776,1126.76C319.099,1120.93 337.396,1115.34 348.964,1108.09C352.552,1111.1 356.2,1112.86 359.914,1113.26C367.367,1117.7 376.645,1118.69 389.389,1113.08C408.741,1104.13 427.635,1094.79 444.761,1083.91C452.679,1085.83 458.671,1084.26 463.28,1080.18C493.645,1059.27 523.922,1038.29 552.804,1016.32C540.054,1016.77 527.162,1019.63 514.15,1024.55C477.049,1035.84 442.96,1043.53 410.368,1046.77C377.695,1052.55 347.031,1053.21 323.833,1042.93C304.408,1036.83 286.201,1028.31 269.051,1017.69C242.698,1043.88 217.879,1067.09 189.661,1081.38C179.255,1085.21 169.147,1090.42 159.446,1097.5C146.682,1107.79 150.354,1114.02 162.339,1118.19Z" style="stroke:black;stroke-width:1px;"/>
            <path d="M267.74,1019C266.687,1019.93 322.686,1046.79 323.52,1045.89C347.77,1054.19 374.764,1055.69 405.284,1048.46C427.696,1046.74 449.832,1042.77 471.732,1036.88C487.673,1031.72 503.83,1027.19 520.323,1023.63C531.455,1020.4 541.526,1018.5 550.271,1018.26C645.238,940.919 672.919,895.636 692.317,854.3C716.302,771.2 688.917,735.199 624.63,733.03C556.332,743.284 478.503,794.15 391.241,885.213C379.824,892.75 347.316,948.274 267.74,1019Z" style="fill:rgb(255,38,0);stroke:black;stroke-width:1px;"/>
        </g>
        <g id="wing-right" transform="matrix(-1,0,0,-1,1441.9,1454.03)">
            <path d="M162.339,1118.19C177.724,1123.3 193.123,1122.9 208.542,1114.85C212.238,1120.01 217.157,1124.03 223.416,1126.8C229.318,1130.09 238.003,1130.77 251.977,1126.49C258.175,1125.29 263.943,1123.33 268.807,1119.76L276.733,1125.27C282.21,1129.51 289.693,1131.14 301.776,1126.76C319.099,1120.93 337.396,1115.34 348.964,1108.09C352.552,1111.1 356.2,1112.86 359.914,1113.26C367.367,1117.7 376.645,1118.69 389.389,1113.08C408.741,1104.13 427.635,1094.79 444.761,1083.91C452.679,1085.83 458.671,1084.26 463.28,1080.18C493.645,1059.27 523.922,1038.29 552.804,1016.32C540.054,1016.77 527.162,1019.63 514.15,1024.55C477.049,1035.84 442.96,1043.53 410.368,1046.77C377.695,1052.55 347.031,1053.21 323.833,1042.93C304.408,1036.83 286.201,1028.31 269.051,1017.69C242.698,1043.88 217.879,1067.09 189.661,1081.38C179.255,1085.21 169.147,1090.42 159.446,1097.5C146.682,1107.79 150.354,1114.02 162.339,1118.19Z" style="stroke:black;stroke-width:1px;"/>
            <path d="M267.74,1019C266.687,1019.93 322.686,1046.79 323.52,1045.89C347.77,1054.19 374.764,1055.69 405.284,1048.46C427.696,1046.74 449.832,1042.77 471.732,1036.88C487.673,1031.72 503.83,1027.19 520.323,1023.63C531.455,1020.4 541.526,1018.5 550.271,1018.26C645.238,940.919 672.919,895.636 692.317,854.3C716.302,771.2 688.917,735.199 624.63,733.03C556.332,743.284 478.503,794.15 391.241,885.213C379.824,892.75 347.316,948.274 267.74,1019Z" style="fill:rgb(255,38,0);stroke:black;stroke-width:1px;"/>
        </g>
    </g>
</svg>
